<svg xmlns="http://www.w3.org/2000/svg" xmlns:xlink="http://www.w3.org/1999/xlink" width="73.02" height="16" viewBox="0 0 73.02 16">
  <defs>
    <clipPath id="clip-path">
      <rect id="Rectangle_1741" data-name="Rectangle 1741" width="40.778" height="5.243" transform="translate(0 0)" fill="#fff"/>
    </clipPath>
  </defs>
  <g id="Group_3090" data-name="Group 3090" transform="translate(-32.373 -2134)">
    <g id="Group_3083" data-name="Group 3083" transform="translate(33.372 2134)">
      <path id="Path_3228" data-name="Path 3228" d="M0,0H73.02V16H0Z" transform="translate(-1)" fill="#6b54fa" opacity="0.698"/>
    </g>
    <g id="Group_3088" data-name="Group 3088">
      <path id="Path_3230" data-name="Path 3230" d="M-9.383.078A2.353,2.353,0,0,1-10.639-.23a1.6,1.6,0,0,1-.69-.874,2.5,2.5,0,0,1-.027-1.33,4.481,4.481,0,0,1,.55-1.424,2.518,2.518,0,0,1,.991-.92A3.285,3.285,0,0,1-8.284-5.1a4.2,4.2,0,0,1,.784.066,3.823,3.823,0,0,1,.636.175l-.156.741a3.052,3.052,0,0,0-.628-.191,3.8,3.8,0,0,0-.729-.066,1.915,1.915,0,0,0-1.427.5A2.868,2.868,0,0,0-10.5-2.434,1.79,1.79,0,0,0-10.393-1.1,1.376,1.376,0,0,0-9.157-.64,4.746,4.746,0,0,0-8.424-.7,4.007,4.007,0,0,0-7.7-.881l-.164.749a4.888,4.888,0,0,1-.71.156A5.634,5.634,0,0,1-9.383.078ZM-7.059,0l1.115-5.257h.85l-.413,1.919a2.515,2.515,0,0,1,.644-.316,2.464,2.464,0,0,1,.784-.121,1.133,1.133,0,0,1,.948.355A1.216,1.216,0,0,1-3-2.395L-3.5,0h-.842l.5-2.356a.78.78,0,0,0-.043-.6q-.129-.172-.612-.172a1.672,1.672,0,0,0-.6.121,1.815,1.815,0,0,0-.542.316L-6.209,0ZM-.928.078a1.577,1.577,0,0,1-1.314-.5,1.676,1.676,0,0,1-.2-1.427A2.592,2.592,0,0,1-1.7-3.276a2.281,2.281,0,0,1,1.591-.5,1.594,1.594,0,0,1,1.338.5A1.7,1.7,0,0,1,1.42-1.849,2.592,2.592,0,0,1,.679-.421,2.306,2.306,0,0,1-.928.078ZM-.772-.64A1.256,1.256,0,0,0,.117-.924a1.758,1.758,0,0,0,.445-.924,1.412,1.412,0,0,0-.023-.92q-.156-.281-.8-.281a1.27,1.27,0,0,0-.885.281,1.678,1.678,0,0,0-.441.92,1.338,1.338,0,0,0,.027.924Q-1.388-.64-.772-.64Zm3.728-3.83.148-.7h.928l-.148.7ZM2.083,0,2.73-3.05H2.168L2.379-3.7H3.713L2.933,0ZM5.71.078a1.662,1.662,0,0,1-1.326-.5A1.6,1.6,0,0,1,4.15-1.849,2.349,2.349,0,0,1,4.973-3.3a2.559,2.559,0,0,1,1.6-.476,3.033,3.033,0,0,1,.632.055,1.8,1.8,0,0,1,.468.172l-.133.632a1.892,1.892,0,0,0-.936-.2,1.779,1.779,0,0,0-1.045.285,1.531,1.531,0,0,0-.554.987,1.275,1.275,0,0,0,.07.971q.211.308.967.308A2.681,2.681,0,0,0,7.1-.78l-.14.647a3.582,3.582,0,0,1-.585.156A3.759,3.759,0,0,1,5.71.078Zm3.76,0A2.211,2.211,0,0,1,8.451-.133a1.163,1.163,0,0,1-.573-.64,1.923,1.923,0,0,1-.023-1.084,2.678,2.678,0,0,1,.714-1.4,2.082,2.082,0,0,1,1.517-.515,1.614,1.614,0,0,1,.881.211A1.066,1.066,0,0,1,11.415-3a1.484,1.484,0,0,1,.027.8l-.14.686H8.6a.79.79,0,0,0,.2.741,1.683,1.683,0,0,0,.983.2,3.312,3.312,0,0,0,.585-.055,3.471,3.471,0,0,0,.546-.14L10.78-.14a2.884,2.884,0,0,1-.608.164A4.366,4.366,0,0,1,9.469.078ZM8.713-2.067H10.67l.055-.257a.73.73,0,0,0-.066-.6q-.152-.214-.682-.214a1.246,1.246,0,0,0-.87.257A1.5,1.5,0,0,0,8.713-2.067Z" transform="translate(90.023 2144.257)" fill="#fff"/>
      <g id="Group_3084" data-name="Group 3084" transform="translate(35.708 2139)">
        <g id="Group_2927" data-name="Group 2927" clip-path="url(#clip-path)">
          <path id="Path_3188" data-name="Path 3188" d="M0,5.244V0H4.412C5.685,0,6.058.421,6.058,1.7V3.545c0,1.288-.373,1.7-1.646,1.7ZM5.029,1.709c0-.518-.168-.671-.617-.671H1.036V4.216H4.412c.465,0,.617-.145.617-.663Z" transform="translate(0 -0.002)" fill="#fff"/>
          <path id="Path_3189" data-name="Path 3189" d="M106.931,5.245l-1.813-1.714h-1.654V5.245h-1.036V0h4.282c1.112,0,1.5.434,1.5,1.623v.32c0,1.28-.48,1.57-1.775,1.57l1.943,1.73ZM107.19,1.8c0-.51-.061-.754-.51-.754h-3.216V2.67h3.216c.366,0,.51-.16.51-.617Z" transform="translate(-95.487 -0.003)" fill="#fff"/>
          <rect id="Rectangle_1739" data-name="Rectangle 1739" width="1.029" height="5.242" transform="translate(13.547 0)" fill="#fff"/>
          <path id="Path_3190" data-name="Path 3190" d="M229.945,3.545v1.7h-1.029V0h3.932c1.2,0,1.585.381,1.585,1.593v.472c0,1.074-.381,1.478-1.585,1.478Zm3.467-1.951c0-.411-.152-.556-.564-.556h-2.9v1.57h2.9c.411,0,.564-.16.564-.533Z" transform="translate(-213.403 -0.002)" fill="#fff"/>
          <path id="Path_3191" data-name="Path 3191" d="M325.322,2.134v.945h-3.314V5.242H321V0h1.014V2.134Z" transform="translate(-299.242 0)" fill="#fff"/>
          <path id="Path_3192" data-name="Path 3192" d="M410.76,5.245,407.895,0h1.227L411.3,4.125,413.48,0h1.234l-2.88,5.242Z" transform="translate(-380.253 -0.002)" fill="#ff4b57"/>
          <path id="Path_3193" data-name="Path 3193" d="M516.507,5.244V0h4.176c1.1,0,1.478.3,1.478,1.341v.328a.765.765,0,0,1-.693.861.882.882,0,0,1,.815.975V3.85c0,1.082-.473,1.394-1.6,1.394Zm4.633-3.757c0-.335-.122-.45-.457-.45h-3.147V2.174h3.155c.328,0,.45-.13.45-.488Zm.122,2.05c0-.389-.114-.526-.541-.526h-3.185v1.2h3.147c.45,0,.579-.137.579-.488Z" transform="translate(-481.505 -0.002)" fill="#fff"/>
          <rect id="Rectangle_1740" data-name="Rectangle 1740" width="1.029" height="5.242" transform="translate(26.08 0)" fill="#ff4b57"/>
        </g>
      </g>
    </g>
  </g>
</svg>
