<svg xmlns="http://www.w3.org/2000/svg" width="244.867" height="161.877" viewBox="0 0 244.867 161.877">
  <g id="Group_4303" data-name="Group 4303" transform="translate(-819.316 -381.123)">
    <g id="Group_4213" data-name="Group 4213" transform="translate(10.316 2.341)">
      <g id="Group_4211" data-name="Group 4211" transform="translate(3.5 -10)">
        <line id="Line_581" data-name="Line 581" x2="55.956" transform="translate(821.544 435.5)" fill="none" stroke="#ff4b57" stroke-linecap="round" stroke-width="5"/>
        <line id="Line_582" data-name="Line 582" x2="73.5" transform="translate(808 463.5)" fill="none" stroke="#ff4b57" stroke-linecap="round" stroke-width="5"/>
        <line id="Line_583" data-name="Line 583" x2="55.956" transform="translate(832.544 491.5)" fill="none" stroke="#ff4b57" stroke-linecap="round" stroke-width="5"/>
        <path id="Path_3727" data-name="Path 3727" d="M1027.821,3359.051l-10.653,9.014-10.653-9.014-10.653,9.014-10.653-9.014-10.653,9.014-9.014-9.014" transform="translate(-18.682 -2889.83)" fill="none" stroke="#ff4b57" stroke-linecap="round" stroke-linejoin="round" stroke-width="5"/>
      </g>
      <g id="Group_4212" data-name="Group 4212" transform="translate(868.133 380.782)">
        <circle id="Ellipse_446" data-name="Ellipse 446" cx="8.261" cy="8.261" r="8.261" transform="translate(58.825 140.356)" fill="none" stroke="#ff4b57" stroke-linecap="round" stroke-linejoin="round" stroke-width="6"/>
        <circle id="Ellipse_447" data-name="Ellipse 447" cx="8.261" cy="8.261" r="8.261" transform="translate(149.692 140.356)" fill="none" stroke="#ff4b57" stroke-linecap="round" stroke-linejoin="round" stroke-width="6"/>
        <path id="Path_2871" data-name="Path 2871" d="M1,1H34.043L56.181,111.61A16.521,16.521,0,0,0,72.7,124.91H153a16.521,16.521,0,0,0,16.521-13.3L182.734,42.3H42.3" fill="none" stroke="#ff4b57" stroke-linecap="round" stroke-linejoin="round" stroke-width="6"/>
      </g>
    </g>
  </g>
</svg>
