<svg xmlns="http://www.w3.org/2000/svg" width="168" height="168" viewBox="0 0 168 168">
  <g id="Group_4300" data-name="Group 4300" transform="translate(-876 -385)">
    <g id="Group_4299" data-name="Group 4299">
      <g id="Group_4297" data-name="Group 4297" transform="translate(416)">
        <g id="Group_4215" data-name="Group 4215" transform="translate(460.261 385.261)">
          <rect id="Rectangle_1906" data-name="Rectangle 1906" width="168" height="168" transform="translate(-0.261 -0.261)" fill="none"/>
          <path id="Path_3728" data-name="Path 3728" d="M151.69,38.487V25.092a6.7,6.7,0,0,0-6.7-6.7H57.927C53.008,18.395,49.609,5,44.533,5H7.7A6.7,6.7,0,0,0,1,11.7V135.6a6.7,6.7,0,0,0,6.7,6.7H138.3a6.7,6.7,0,0,0,6.7-6.7" transform="translate(2.371 11.766)" fill="none" stroke="#ff4b57" stroke-linecap="round" stroke-miterlimit="10" stroke-width="5"/>
          <path id="Path_3729" data-name="Path 3729" d="M1,112.111,17.743,21.7a6.7,6.7,0,0,1,6.7-6.7h130.6a6.7,6.7,0,0,1,6.7,6.7l-16.743,90.414" transform="translate(2.371 35.253)" fill="none" stroke="#ff4b57" stroke-linecap="round" stroke-miterlimit="10" stroke-width="5"/>
        </g>
        <g id="Group_4210" data-name="Group 4210" transform="translate(256.106 -354.366) rotate(45)">
          <line id="Line_584" data-name="Line 584" x2="17.477" transform="translate(782.5 385.509)" fill="none" stroke="#ff4b57" stroke-width="2"/>
          <line id="Line_585" data-name="Line 585" y2="18.018" transform="translate(791.239 376.5)" fill="none" stroke="#ff4b57" stroke-width="2"/>
        </g>
        <g id="Group_4287" data-name="Group 4287" transform="translate(522 458)">
          <rect id="Rectangle_1956" data-name="Rectangle 1956" width="50" height="50" fill="none"/>
          <circle id="Ellipse_492" data-name="Ellipse 492" cx="16" cy="16" r="16" transform="translate(5 4)" fill="none" stroke="#ff4b57" stroke-linecap="round" stroke-miterlimit="10" stroke-width="2"/>
          <line id="Line_605" data-name="Line 605" x2="13.271" y2="13.271" transform="translate(32.229 32.229)" fill="none" stroke="#ff4b57" stroke-miterlimit="10" stroke-width="4"/>
        </g>
      </g>
    </g>
  </g>
</svg>
