<svg id="Group_3095" data-name="Group 3095" xmlns="http://www.w3.org/2000/svg" xmlns:xlink="http://www.w3.org/1999/xlink" width="155.043" height="19.933" viewBox="0 0 155.043 19.933">
  <defs>
    <clipPath id="clip-path">
      <rect id="Rectangle_1741" data-name="Rectangle 1741" width="155.043" height="19.933" fill="#fff"/>
    </clipPath>
  </defs>
  <g id="Group_2927" data-name="Group 2927" transform="translate(0 0)" clip-path="url(#clip-path)">
    <path id="Path_3188" data-name="Path 3188" d="M0,19.935V0H16.775c4.839,0,6.258,1.593,6.258,6.461v7.011c0,4.9-1.419,6.461-6.258,6.461ZM19.122,6.492c0-1.97-.637-2.55-2.347-2.55H3.94V16.023H16.775c1.767,0,2.347-.55,2.347-2.521Z" transform="translate(0 -0.002)" fill="#fff"/>
    <path id="Path_3189" data-name="Path 3189" d="M119.55,19.935l-6.9-6.519h-6.287v6.519h-3.94V0H118.71c4.23,0,5.707,1.651,5.707,6.171V7.391c0,4.867-1.825,5.968-6.75,5.968l7.388,6.577Zm.985-13.1c0-1.941-.232-2.868-1.941-2.868H106.368v6.171h12.226c1.391,0,1.941-.608,1.941-2.347Z" transform="translate(-76.037 -0.002)" fill="#fff"/>
    <rect id="Rectangle_1739" data-name="Rectangle 1739" width="3.911" height="19.933" transform="translate(51.508 0.001)" fill="#fff"/>
    <path id="Path_3190" data-name="Path 3190" d="M232.827,13.474v6.461h-3.911V0h14.95c4.577,0,6.026,1.449,6.026,6.055v1.8c0,4.085-1.449,5.621-6.026,5.621ZM246.01,6.057c0-1.565-.579-2.115-2.144-2.115H232.827V9.911h11.038c1.564,0,2.144-.609,2.144-2.028Z" transform="translate(-169.934 -0.002)" fill="#fff"/>
    <path id="Path_3191" data-name="Path 3191" d="M337.448,8.114v3.592h-12.6v8.227H321V0h3.855V8.114Z" transform="translate(-238.288 0)" fill="#fff"/>
    <path id="Path_3192" data-name="Path 3192" d="M418.788,19.935,407.895,0h4.665l8.286,15.674L429.131,0h4.694L422.873,19.935Z" transform="translate(-302.797 -0.002)" fill="#3b3f4b"/>
    <path id="Path_3193" data-name="Path 3193" d="M516.507,19.935V0h15.876C536.555,0,538,1.161,538,5.1V6.347a2.91,2.91,0,0,1-2.636,3.274,3.352,3.352,0,0,1,3.1,3.708v1.3c0,4.114-1.8,5.3-6.084,5.3ZM534.122,5.651c0-1.275-.463-1.709-1.738-1.709H520.418V8.259h11.995c1.246,0,1.709-.492,1.709-1.854Zm.464,7.793c0-1.478-.435-2-2.057-2h-12.11v4.578h11.966c1.709,0,2.2-.522,2.2-1.854Z" transform="translate(-383.425 -0.002)" fill="#fff"/>
    <rect id="Rectangle_1740" data-name="Rectangle 1740" width="3.911" height="19.932" transform="translate(99.16 0.001)" fill="#3b3f4b"/>
  </g>
</svg>
