<svg xmlns="http://www.w3.org/2000/svg" xmlns:xlink="http://www.w3.org/1999/xlink" width="130.125" height="16.73" viewBox="0 0 130.125 16.73">
  <defs>
    <clipPath id="clip-path">
      <rect id="Rectangle_1741" data-name="Rectangle 1741" width="130.125" height="16.73" transform="translate(0 0)" fill="#fff"/>
    </clipPath>
  </defs>
  <g id="Group_3029" data-name="Group 3029" transform="translate(0 0)">
    <g id="Group_2927" data-name="Group 2927" transform="translate(0 0)" clip-path="url(#clip-path)">
      <path id="Path_3188" data-name="Path 3188" d="M0,16.731V0H14.079c4.061,0,5.252,1.337,5.252,5.422v5.885c0,4.109-1.191,5.422-5.252,5.422ZM16.048,5.449c0-1.654-.535-2.14-1.97-2.14H3.307v10.14H14.079c1.483,0,1.97-.462,1.97-2.116Z" transform="translate(0 -0.002)" fill="#fff"/>
      <path id="Path_3189" data-name="Path 3189" d="M116.8,16.732l-5.787-5.471h-5.277v5.471h-3.307V0h13.665c3.55,0,4.79,1.386,4.79,5.179V6.2c0,4.085-1.532,5.009-5.665,5.009l6.2,5.52Zm.827-10.991c0-1.629-.194-2.407-1.629-2.407H105.735V8.513H116c1.167,0,1.629-.511,1.629-1.97Z" transform="translate(-80.278 -0.002)" fill="#fff"/>
      <rect id="Rectangle_1739" data-name="Rectangle 1739" width="3.282" height="16.729" transform="translate(43.23 0)" fill="#fff"/>
      <path id="Path_3190" data-name="Path 3190" d="M232.2,11.309v5.422h-3.283V0h12.547c3.842,0,5.058,1.216,5.058,5.082V6.591c0,3.428-1.216,4.717-5.058,4.717Zm11.064-6.225c0-1.313-.486-1.775-1.8-1.775H232.2V8.318h9.264c1.313,0,1.8-.511,1.8-1.7Z" transform="translate(-179.413 -0.002)" fill="#fff"/>
      <path id="Path_3191" data-name="Path 3191" d="M334.8,6.81V9.824H324.23v6.9H321V0h3.235V6.81Z" transform="translate(-251.581 0)" fill="#fff"/>
      <path id="Path_3192" data-name="Path 3192" d="M417.037,16.731,407.895,0h3.915l6.954,13.155L425.718,0h3.939l-9.191,16.729Z" transform="translate(-319.689 -0.002)" fill="#ff4b57"/>
      <path id="Path_3193" data-name="Path 3193" d="M516.507,16.731V0h13.325c3.5,0,4.717.973,4.717,4.28V5.327a2.443,2.443,0,0,1-2.212,2.748,2.813,2.813,0,0,1,2.6,3.112v1.094c0,3.453-1.508,4.45-5.106,4.45ZM531.291,4.743c0-1.07-.389-1.435-1.459-1.435H519.789V6.932h10.067c1.046,0,1.435-.413,1.435-1.556Zm.389,6.541c0-1.24-.365-1.678-1.727-1.678H519.789v3.842h10.043c1.435,0,1.848-.438,1.848-1.556Z" transform="translate(-404.814 -0.002)" fill="#fff"/>
      <rect id="Rectangle_1740" data-name="Rectangle 1740" width="3.283" height="16.728" transform="translate(83.223 0)" fill="#ff4b57"/>
    </g>
  </g>
</svg>
