<svg xmlns="http://www.w3.org/2000/svg" xmlns:xlink="http://www.w3.org/1999/xlink" width="193.639" height="24.895" viewBox="0 0 193.639 24.895">
  <defs>
    <clipPath id="clip-path">
      <rect id="Rectangle_1741" data-name="Rectangle 1741" width="193.639" height="24.895" transform="translate(0 0)" fill="#fff"/>
    </clipPath>
  </defs>
  <g id="Group_3159" data-name="Group 3159" transform="translate(0 0)">
    <g id="Group_2927" data-name="Group 2927" transform="translate(0 0)" clip-path="url(#clip-path)">
      <path id="Path_3188" data-name="Path 3188" d="M0,24.9V0H20.951c6.043,0,7.816,1.99,7.816,8.069v8.757c0,6.115-1.773,8.069-7.816,8.069ZM23.882,8.107c0-2.461-.8-3.185-2.931-3.185H4.921V20.012h16.03c2.207,0,2.931-.687,2.931-3.148Z" transform="translate(0 -0.001)" fill="#3b3f4b"/>
      <path id="Path_3189" data-name="Path 3189" d="M123.813,24.9,115.2,16.756h-7.852V24.9h-4.921V0h20.335c5.283,0,7.128,2.062,7.128,7.707V9.23c0,6.079-2.279,7.454-8.431,7.454l9.227,8.214Zm1.23-16.355c0-2.424-.289-3.582-2.424-3.582h-15.27v7.707h15.27c1.737,0,2.424-.76,2.424-2.931Z" transform="translate(-69.467 -0.002)" fill="#3b3f4b"/>
      <rect id="Rectangle_1739" data-name="Rectangle 1739" width="4.885" height="24.895" transform="translate(64.331 0.001)" fill="#3b3f4b"/>
      <path id="Path_3190" data-name="Path 3190" d="M233.8,16.828V24.9h-4.885V0h18.671c5.717,0,7.526,1.809,7.526,7.563V9.808c0,5.1-1.809,7.02-7.526,7.02Zm16.464-9.263c0-1.954-.724-2.642-2.678-2.642H233.8v7.454h13.786c1.954,0,2.678-.76,2.678-2.533Z" transform="translate(-155.251 -0.001)" fill="#3b3f4b"/>
      <path id="Path_3191" data-name="Path 3191" d="M341.544,10.133v4.486H325.809V24.894H321V0h4.814V10.133Z" transform="translate(-217.699 0)" fill="#3b3f4b"/>
      <path id="Path_3192" data-name="Path 3192" d="M421.5,24.9,407.895,0h5.826l10.349,19.575L434.417,0h5.862L426.6,24.9Z" transform="translate(-276.635 -0.002)" fill="#ff4b57"/>
      <path id="Path_3193" data-name="Path 3193" d="M516.507,24.9V0h19.829c5.211,0,7.019,1.447,7.019,6.368V7.926c0,2.424-1.122,3.727-3.292,4.089,2.171.29,3.872,1.628,3.872,4.632v1.628c0,5.138-2.244,6.622-7.6,6.622Zm22-17.839c0-1.592-.579-2.135-2.171-2.135H521.391v5.391h14.98c1.556,0,2.135-.615,2.135-2.316Zm.579,9.733c0-1.846-.543-2.5-2.569-2.5H521.391v5.717h14.944c2.135,0,2.75-.651,2.75-2.316Z" transform="translate(-350.296 -0.001)" fill="#3b3f4b"/>
      <rect id="Rectangle_1740" data-name="Rectangle 1740" width="4.885" height="24.894" transform="translate(123.844 0.001)" fill="#ff4b57"/>
    </g>
  </g>
</svg>
