<svg xmlns="http://www.w3.org/2000/svg" width="61.058" height="56.641" viewBox="0 0 61.058 56.641">
  <g id="Group_3136" data-name="Group 3136" transform="translate(12744.529 621)">
    <g id="_icons" transform="translate(-12746.954 -624.2)">
      <g id="Group_2562" data-name="Group 2562" transform="translate(2.425 3.2)">
        <path id="Path_3095" data-name="Path 3095" d="M62.168,45.521l-21-37.548A8.892,8.892,0,0,0,32.893,3.2,8.892,8.892,0,0,0,24.62,7.973l-21,37.548a10.143,10.143,0,0,0,0,9.546,9.5,9.5,0,0,0,8.273,4.773h42a9.9,9.9,0,0,0,8.273-4.773C64.077,52.2,63.759,48.7,62.168,45.521Zm-5.41,6.364a3.361,3.361,0,0,1-2.864,1.591h-42a3.178,3.178,0,0,1-2.864-1.591,2.779,2.779,0,0,1,0-3.182l21-37.866a2.984,2.984,0,0,1,2.864-1.591,2.984,2.984,0,0,1,2.864,1.591l21,37.866A4.968,4.968,0,0,1,56.759,51.885Z" transform="translate(-2.425 -3.2)" fill="#ffc31f"/>
        <path id="Path_3096" data-name="Path 3096" d="M14.182,9A3.006,3.006,0,0,0,11,12.182v9.546a3.006,3.006,0,0,0,3.182,3.182,3.006,3.006,0,0,0,3.182-3.182V12.182A3.006,3.006,0,0,0,14.182,9Z" transform="translate(16.286 9.456)" fill="#ffc31f"/>
        <circle id="Ellipse_475" data-name="Ellipse 475" cx="3.182" cy="3.182" r="3.182" transform="translate(27.286 37.548)" fill="#ffc31f"/>
      </g>
    </g>
  </g>
</svg>
